# xmcd
#
# Track frame offsets:
#	150
#	16488
#	36163
#	55113
#	74450
#	96983
#	114613
#	131308
#	149518
#	171213
#	186688
#	206693
#	224263
#	244288
#	262875
#	286763
#	302725
#
# Disc length: 4212 seconds
#
# Revision: 2
# Processed by: cddbd v1.5.2PL0 Copyright (c) Steve Scherf et al.
# Submitted via: EasyCDDAExtractor 15.2.5.1
#
DISCID=08107211
DTITLE=劉，黎，張， - 三大天皇
DYEAR=1983
DGENRE=Alternative
TTITLE0=你是我的夢
TTITLE1=忘記他
TTITLE2=夏日傾情
TTITLE3=答案就是你
TTITLE4=只想一生跟你走
TTITLE5=夏日燒着
TTITLE6=永遠寂寞
TTITLE7=等你回來
TTITLE8=我的情人
TTITLE9=該走的時候
TTITLE10=吻別
TTITLE11=孤單的人孤單的我
TTITLE12=眞我的風采
TTITLE13=情網
TTITLE14=還是覺得你最好
TTITLE15=一天一天等下去
TTITLE16=其實我真的愛你
EXTD=
EXTT0=
EXTT1=
EXTT2=
EXTT3=
EXTT4=
EXTT5=
EXTT6=
EXTT7=
EXTT8=
EXTT9=
EXTT10=
EXTT11=
EXTT12=
EXTT13=
EXTT14=
EXTT15=
EXTT16=
PLAYORDER=
